<?xml version="1.0" standalone="no"?>
<!DOCTYPE svg PUBLIC "-//W3C//DTD SVG 20010904//EN"
 "http://www.w3.org/TR/2001/REC-SVG-20010904/DTD/svg10.dtd">
<svg version="1.0" xmlns="http://www.w3.org/2000/svg"
 width="500.000000pt" height="306.000000pt" viewBox="0 0 500.000000 306.000000"
 preserveAspectRatio="xMidYMid meet">
<metadata>
Created by potrace 1.16, written by Peter Selinger 2001-2019
</metadata>
<g transform="translate(0.000000,306.000000) scale(0.100000,-0.100000)"
fill="#000000" stroke="none">
<path d="M2225 2850 c4 -6 -22 -10 -69 -10 -44 0 -76 -4 -76 -10 0 -5 -24 -10
-54 -10 -30 0 -58 -4 -61 -10 -3 -5 -21 -10 -40 -10 -19 0 -36 -4 -40 -9 -3
-6 -37 -13 -75 -17 -39 -3 -70 -11 -70 -15 0 -5 -13 -9 -30 -9 -16 0 -30 -4
-30 -10 0 -5 -11 -10 -24 -10 -14 0 -28 -4 -31 -10 -3 -5 -17 -10 -30 -10 -15
0 -26 -7 -30 -20 -10 -30 64 -100 105 -100 16 0 30 5 30 10 0 6 15 10 34 10
19 0 38 5 42 11 3 6 23 9 44 7 23 -2 38 1 37 7 -1 6 18 10 45 9 26 0 45 3 42
8 -6 9 23 12 84 9 25 -2 42 2 42 8 0 7 29 11 78 11 43 0 82 4 88 9 5 6 34 11
64 13 l55 3 3 60 c1 33 -1 65 -5 71 -10 14 -137 28 -128 14z"/>
<path d="M2622 2853 l-103 -4 3 -72 c3 -72 3 -72 33 -75 17 -2 34 -8 40 -13 5
-5 39 -9 76 -9 38 0 71 -5 74 -11 4 -6 24 -10 44 -8 68 4 98 0 81 -11 -10 -7
-1 -8 31 -4 30 4 49 2 53 -5 4 -6 25 -11 47 -11 21 0 39 -4 39 -10 0 -5 16
-10 35 -10 19 0 35 -5 35 -10 0 -6 6 -10 13 -9 14 3 74 -9 102 -20 49 -20 81
-34 98 -43 15 -7 31 4 88 58 48 47 69 75 69 91 0 17 -5 24 -17 22 -30 -3 -44
1 -39 9 3 5 -8 6 -25 4 -17 -3 -29 0 -29 7 0 6 -11 11 -24 11 -14 0 -28 5 -31
10 -3 6 -19 10 -36 10 -16 0 -29 4 -29 10 0 5 -8 9 -17 8 -24 -3 -94 11 -115
23 -10 5 -33 9 -52 9 -19 0 -38 5 -41 10 -3 6 -31 10 -61 10 -30 0 -54 5 -54
10 0 6 -30 10 -70 10 -40 0 -70 4 -70 10 0 6 -10 9 -22 8 -13 -1 -69 -4 -126
-5z"/>
<path d="M1333 2613 c-13 -2 -23 -9 -23 -14 0 -5 -9 -9 -20 -9 -11 0 -20 -4
-20 -9 0 -8 -32 -22 -55 -25 -5 -1 -17 -8 -26 -17 -9 -9 -30 -22 -47 -30 -18
-8 -32 -17 -32 -21 0 -5 -5 -8 -11 -8 -6 0 -43 -21 -82 -47 -40 -27 -76 -50
-81 -52 -5 -2 -16 -9 -25 -17 -35 -28 -101 -81 -135 -107 -20 -15 -36 -31 -36
-36 0 -11 47 -31 73 -31 21 0 85 37 114 66 7 7 26 18 43 26 16 7 30 16 30 20
0 5 7 8 15 8 8 0 15 3 15 8 0 4 28 21 63 37 34 17 64 32 67 36 8 8 84 44 95
44 6 0 12 3 15 6 10 11 142 70 147 66 6 -6 43 24 43 35 0 4 -14 23 -31 43 -30
34 -44 38 -96 28z"/>
<path d="M2075 2540 c-11 -5 -42 -9 -70 -9 -27 -1 -66 -5 -85 -10 -19 -5 -80
-17 -135 -26 -55 -10 -104 -22 -109 -27 -6 -4 -20 -8 -33 -8 -12 0 -32 -4 -45
-9 -13 -5 -48 -17 -78 -26 -30 -8 -64 -20 -75 -24 -79 -35 -161 -62 -176 -58
-10 3 -16 0 -13 -7 2 -6 -10 -17 -28 -25 -67 -29 -103 -46 -108 -51 -7 -7 -48
-30 -85 -48 -25 -12 -189 -122 -229 -153 -97 -74 -224 -198 -308 -299 -21 -25
-42 -50 -48 -57 -5 -7 -10 -15 -10 -18 0 -3 -9 -15 -20 -27 -10 -12 -17 -25
-14 -30 3 -5 24 13 47 39 80 91 210 214 282 268 22 16 42 33 43 37 2 4 7 8 12
8 5 0 44 24 87 53 43 30 92 61 108 69 17 9 68 35 115 60 79 40 116 56 293 127
45 18 83 30 117 37 19 3 40 10 45 14 6 4 24 10 40 13 17 3 53 11 80 17 228 51
349 63 595 63 232 0 358 -8 374 -24 6 -5 28 -9 50 -9 58 -1 130 -16 134 -28 2
-6 10 -8 18 -5 14 5 67 -7 119 -27 11 -4 48 -16 82 -25 l62 -18 38 31 c64 51
76 67 59 81 -16 14 -101 40 -154 48 -18 3 -35 9 -38 14 -3 5 -18 9 -35 9 -16
0 -29 5 -29 11 0 6 -6 9 -12 6 -7 -2 -47 2 -88 10 -41 8 -111 19 -155 25 -102
13 -593 20 -620 8z"/>
<path d="M3353 2434 c-32 -31 -87 -83 -123 -117 -36 -33 -144 -135 -240 -226
-162 -155 -233 -222 -450 -430 -69 -65 -91 -81 -116 -81 -41 0 -64 -27 -64
-76 0 -34 6 -46 36 -72 20 -18 40 -32 44 -32 19 0 72 59 84 93 12 37 67 100
292 335 72 75 153 162 180 191 27 30 95 102 151 160 55 59 121 128 145 155 23
27 58 65 76 85 34 36 57 71 48 71 -3 0 -31 -25 -63 -56z"/>
<path d="M548 2037 c-20 -23 -45 -51 -55 -62 -10 -11 -36 -45 -58 -75 -22 -30
-47 -62 -57 -71 -10 -9 -18 -21 -18 -27 0 -6 -6 -17 -12 -24 -14 -14 -31 -43
-57 -93 -9 -16 -18 -32 -21 -35 -7 -7 -30 -49 -30 -55 0 -3 5 -5 11 -5 12 0
39 25 39 35 0 14 48 64 54 57 4 -3 4 1 0 11 -3 9 -2 17 3 17 5 0 17 15 28 33
10 17 21 34 24 37 3 3 40 43 81 90 41 46 93 100 114 120 61 55 66 60 66 76 0
10 -12 14 -37 14 -32 -1 -44 -7 -75 -43z"/>
<path d="M183 1035 c-7 -8 -13 -37 -13 -64 0 -45 3 -51 24 -57 13 -3 38 -4 57
-2 l34 3 3 68 3 67 -48 0 c-29 -1 -53 -7 -60 -15z"/>
<path d="M316 1042 c-3 -5 -6 -107 -6 -228 -1 -131 -6 -224 -12 -231 -7 -9 -6
-20 5 -37 14 -20 22 -23 70 -21 30 1 60 6 66 9 7 5 11 68 11 192 l0 184 49 0
c61 0 81 18 81 69 0 62 -18 71 -148 71 -61 0 -113 -4 -116 -8z"/>
<path d="M690 1040 c0 -5 -7 -10 -15 -10 -18 0 -65 -43 -65 -60 0 -5 -3 -10
-7 -10 -5 0 -8 -49 -8 -110 0 -60 3 -110 8 -110 4 0 7 -6 7 -13 0 -20 40 -52
79 -66 19 -6 78 -11 132 -11 l97 0 -5 -40 c-9 -63 12 -86 79 -85 29 1 59 4 66
9 15 9 17 391 2 401 -5 3 -10 13 -10 22 0 19 -57 73 -77 73 -7 0 -13 5 -13 10
0 6 -52 10 -135 10 -83 0 -135 -4 -135 -10z m226 -192 l-1 -63 -90 0 -90 0 -3
63 -3 62 94 0 94 0 -1 -62z"/>
<path d="M1125 1028 c-3 -13 -4 -131 -3 -263 l3 -240 144 -1 c80 -1 151 0 158
3 9 4 13 26 13 69 l0 63 -92 3 c-77 3 -92 6 -88 18 3 8 6 86 8 172 3 147 2
158 -18 178 -15 15 -33 20 -70 20 -43 0 -50 -3 -55 -22z"/>
<path d="M1486 1034 c-3 -9 -6 -125 -6 -259 l0 -244 33 -6 c17 -3 91 -4 162
-2 l130 2 3 68 3 67 -101 0 -100 0 0 195 0 195 -59 0 c-44 0 -60 -4 -65 -16z"/>
<path d="M1854 1037 c-3 -8 -4 -49 -2 -93 l3 -79 58 -3 c53 -3 58 -1 67 22 9
25 12 25 127 28 l118 3 0 65 0 65 -183 3 c-147 2 -183 0 -188 -11z"/>
<path d="M2276 1034 c-3 -9 -6 -123 -6 -254 0 -261 0 -260 61 -258 78 2 79 2
79 68 l0 60 92 0 c178 0 208 29 208 201 0 104 -1 111 -27 139 -48 54 -71 60
-243 60 -135 0 -159 -2 -164 -16z m294 -189 l0 -65 -80 0 -80 0 0 65 0 65 80
0 80 0 0 -65z"/>
<path d="M1930 851 l-75 -6 -3 -157 c-2 -157 -2 -158 20 -163 13 -2 97 -4 188
-2 l165 2 3 68 3 67 -126 0 c-112 0 -125 2 -125 18 0 36 14 41 115 44 l100 3
3 53 c2 31 -2 60 -9 68 -12 15 -104 16 -259 5z"/>
<path d="M599 678 c-5 -53 2 -143 12 -148 9 -6 79 -7 112 -1 4 0 7 26 7 56 0
47 -3 55 -18 55 -22 0 -79 27 -87 41 -9 13 -25 11 -26 -3z"/>
<path d="M2457 632 c-3 -4 14 -28 36 -53 41 -45 43 -46 114 -51 99 -7 108 5
46 66 l-48 46 -72 0 c-39 0 -74 -3 -76 -8z"/>
</g>
</svg>
